<?xml version="1.0" encoding="utf-8"?>
<!-- Generator: Adobe Illustrator 20.0.0, SVG Export Plug-In . SVG Version: 6.00 Build 0)  -->
<svg version="1.1" id="Layer_1" xmlns="http://www.w3.org/2000/svg" xmlns:xlink="http://www.w3.org/1999/xlink" x="0px" y="0px"
	 viewBox="0 0 21.6 21.6" style="enable-background:new 0 0 21.6 21.6;" xml:space="preserve">
<style type="text/css">
	.st0{opacity:0.8;}
</style>
<path class="st0" d="M21.6,21.6H0V0h21.6V21.6z M1.5,20.1h18.6V1.5H1.5V20.1z"/>
<g class="st0">
	<path d="M6.8,7.4v8.5H5.1V7.4H2V5.8h7.8v1.5H6.8z"/>
	<path d="M16,15.8h-4.4v-10h3.9c0.7,0,1.3,0.1,1.8,0.2c0.5,0.2,0.9,0.4,1.1,0.7c0.5,0.5,0.7,1.1,0.7,1.7c0,0.8-0.2,1.4-0.7,1.7
		c-0.2,0.1-0.3,0.2-0.4,0.3c-0.1,0-0.2,0.1-0.4,0.2c0.6,0.1,1.1,0.4,1.5,0.8c0.4,0.4,0.6,1,0.6,1.6c0,0.7-0.2,1.3-0.7,1.8
		C18.3,15.5,17.4,15.8,16,15.8z M13.3,10h2.1c1.2,0,1.8-0.4,1.8-1.2c0-0.5-0.1-0.8-0.4-1c-0.3-0.2-0.8-0.3-1.4-0.3h-2.2V10z
		 M13.3,14.3H16c0.6,0,1.1-0.1,1.4-0.3c0.3-0.2,0.5-0.6,0.5-1.1c0-0.9-0.7-1.3-2.1-1.3h-2.4V14.3z"/>
</g>
</svg>
