<?xml version="1.0" encoding="utf-8"?>
<!-- Generator: Adobe Illustrator 19.0.0, SVG Export Plug-In . SVG Version: 6.00 Build 0)  -->
<svg version="1.1" id="Layer_1" xmlns="http://www.w3.org/2000/svg" xmlns:xlink="http://www.w3.org/1999/xlink" x="0px" y="0px"
	 viewBox="55 -3.8 170 66.8" style="enable-background:new 55 -3.8 170 66.8;" xml:space="preserve">
<style type="text/css">
	.st0{fill:#FFFFFF;}
	.st1{enable-background:new    ;}
</style>
<g id="Layer_1_1_">
	<path class="st0" d="M123.3,8.3c-0.5-0.2-1.1,0.1-1.3,0.6c-1.3,3.8-4.5,3.8-5.5,3.8c-0.3-2.4-1.3-4.6-3-6.3
		c-1.6-1.6-3.7-2.6-5.9-2.9c-0.1-1.2,0.1-4.2,3.8-5.4c0.5-0.2,0.8-0.7,0.6-1.3c-0.2-0.5-0.7-0.8-1.3-0.6c-4.3,1.4-5.2,4.9-5.1,7.2
		c-2.6,0.1-5.1,1.1-7,3.1c-1.6,1.6-2.6,3.6-2.9,5.8c-3.8-1.2-8.2-1.3-12.6-0.2c-4.5-2.6-9.3-4.8-12.7-4.7
		c-8.3,0.3-14.9,7.4-14.5,15.7c0.2,4.6,2.4,8.6,5.8,11.3c-0.2,0.9-0.4,1.8-0.7,2.8c-1.8,7-4.2,16.4-0.7,21.1l-2.5,2.4
		c-0.4,0.4-0.4,1,0,1.4c0.2,0.2,0.5,0.3,0.7,0.3s0.5-0.1,0.7-0.3l2.5-2.5c1.9,1.5,4.6,2,7.5,2c5.4,0,11.8-1.9,16.7-3.4l1.2-0.4
		c0.3,0.4,0.7,0.8,1.1,1.1c2.8,2.6,6.4,4,10.3,4c0.2,0,0.4,0,0.6,0c4-0.2,7.8-1.9,10.5-4.9s4.2-6.8,4-10.9c-0.1-2.2-1.2-5-3.2-8.4
		c-0.7-1.1-1.4-2.2-2.1-3.3c0.8-4,0.6-7.9-0.5-11.3c2.2-0.4,4.2-1.4,5.8-2.9c1.8-1.8,2.8-4.1,3-6.6c0.1,0,0.3,0,0.5,0
		c2.3,0,5.5-1,6.9-5.2C124.1,9,123.9,8.5,123.3,8.3z M57.9,23c-0.3-7.2,5.4-13.4,12.6-13.7c0.1,0,0.2,0,0.2,0
		c6.4,0,19.3,9.5,22.9,12.2c-2.3,2.1-8.7,7.6-14.6,11.1c-3.2,1.9-5.7,2.9-7.5,2.9C64.3,35.9,58.2,30.2,57.9,23z M83.7,45.2l-8.4-8.4
		c1.4-0.5,3-1.3,4.7-2.3c0.5-0.3,0.9-0.6,1.4-0.9l5,5C85.3,40.8,84.3,43.1,83.7,45.2z M87.5,36.7l-4.3-4.3c1.9-1.3,3.7-2.6,5.4-4
		l2.5,2.5C89.8,32.7,88.6,34.7,87.5,36.7z M62.4,39.4l18.4,18.3c-2.6,0.7-5.3,1.4-8,1.7l-12-12C61.2,44.7,61.8,41.9,62.4,39.4z
		 M62.3,57.6c-1.6-1.6-2-4.4-1.8-7.6l9.7,9.7C66.9,59.8,64.1,59.3,62.3,57.6z M85.3,56.4c-0.7,0.2-1.5,0.5-2.3,0.7c0,0,0,0,0-0.1
		L63,37.1c0.1-0.5,0.3-1.1,0.4-1.6c2.2,1.3,4.8,2.1,7.6,2.1c0.2,0,0.4,0,0.6,0c0.5,0,1-0.1,1.5-0.2l10.1,10.1c0,0.3,0,0.7,0,1
		c0.1,2.8,1,5.4,2.5,7.7L85.3,56.4z M111.6,47.4c0.1,3.5-1.1,6.9-3.5,9.4c-2.4,2.6-5.6,4.1-9.1,4.2s-6.9-1.1-9.4-3.5
		c-2.6-2.4-4.1-5.6-4.2-9.1c-0.3-6.3,9.5-19.5,12.2-23.1c2.1,2.3,7.6,8.7,11.1,14.6C110.5,43.1,111.5,45.6,111.6,47.4z M98.2,23.1
		c-0.2-0.2-0.5-0.3-0.8-0.3c-0.3,0-0.6,0.1-0.7,0.4c-0.2,0.3-2.1,2.7-4.5,6.1l-2-2c3.2-2.6,5.5-4.8,5.7-5c0.2-0.2,0.3-0.5,0.3-0.8
		s-0.1-0.6-0.4-0.7c-0.4-0.3-4.8-3.9-10.2-7.2c6.3-1,12.2,0.6,16.2,4.6c3.8,3.8,5.5,9.2,4.8,15.1C102.6,27.9,98.4,23.3,98.2,23.1z
		 M112.1,19.9c-1.4,1.4-3.2,2.2-5.1,2.4c-0.9-2.1-2.2-4-3.8-5.6c-1.6-1.6-3.5-2.9-5.6-3.8c0.2-2,1.1-3.7,2.4-5.1
		c3.3-3.3,8.7-3.3,12.1,0c1.6,1.6,2.5,3.8,2.5,6S113.7,18.3,112.1,19.9z"/>
</g>
<g id="Layer_2">
	<g class="st1">
		<path class="st0" d="M142.4,53.8V18.5h10.3c3.7,0,6.5,0.8,8.6,2.3c2,1.5,3.1,3.9,3.1,7c0,1.8-0.5,3.4-1.5,4.7
			c-1,1.3-2.4,2.3-4.2,2.8c2.1,0.4,3.9,1.4,5.2,3c1.3,1.6,2,3.5,2,5.6c0,3.2-1,5.6-3.1,7.3c-2,1.7-4.8,2.5-8.2,2.5H142.4z
			 M145.3,34.3h8.1c2.6,0,4.5-0.6,5.9-1.7c1.4-1.1,2.1-2.8,2.1-5c0-2.2-0.7-3.9-2.2-5s-3.7-1.7-6.5-1.7h-7.4V34.3z M145.3,36.8v14.5
			h9.3c2.6,0,4.6-0.6,6.1-1.9c1.5-1.3,2.2-3.1,2.2-5.4c0-2.1-0.7-3.8-2-5.2s-3.3-2-5.9-2H145.3z"/>
		<path class="st0" d="M193.1,36.7h-17v14.6h19.5v2.5h-22.4V18.5h22.2V21h-19.3v13.3h17V36.7z"/>
		<path class="st0" d="M221.7,36.7h-17v14.6h19.5v2.5h-22.4V18.5H224V21h-19.3v13.3h17V36.7z"/>
	</g>
</g>
</svg>
