<?xml version="1.0" encoding="utf-8"?>
<!-- Generator: Adobe Illustrator 19.0.0, SVG Export Plug-In . SVG Version: 6.00 Build 0)  -->
<svg version="1.1" id="Layer_1" xmlns="http://www.w3.org/2000/svg" xmlns:xlink="http://www.w3.org/1999/xlink" x="0px" y="0px"
	 viewBox="0 0 64 64" style="enable-background:new 0 0 64 64;" xml:space="preserve">
<style type="text/css">
	.st0{fill:#FFFFFF;}
</style>
<g id="Layer_1_1_">
	<path class="st0" d="M62.2,13.2c-0.5-0.2-1,0.1-1.2,0.5c-1.2,3.4-4.1,3.4-5,3.4c-0.3-2.2-1.2-4.2-2.7-5.7C51.9,10.1,50,9.2,48,8.9
		c-0.1-1.1,0.1-3.8,3.4-4.9c0.5-0.2,0.7-0.6,0.5-1.2c-0.2-0.5-0.6-0.7-1.2-0.5c-3.9,1.3-4.7,4.4-4.6,6.5c-2.4,0.1-4.6,1-6.3,2.8
		c-1.4,1.4-2.4,3.3-2.6,5.2c-3.4-1.1-7.4-1.2-11.4-0.2c-4.1-2.4-8.4-4.3-11.5-4.3C6.9,12.7,0.9,19.1,1.3,26.6
		c0.2,4.2,2.2,7.8,5.2,10.2c-0.2,0.8-0.4,1.6-0.6,2.5c-1.6,6.3-3.8,14.8-0.6,19.1L3,60.6c-0.4,0.4-0.4,0.9,0,1.3
		c0.2,0.2,0.5,0.3,0.6,0.3c0.2,0,0.5-0.1,0.6-0.3l2.3-2.3c1.7,1.4,4.2,1.8,6.8,1.8c4.9,0,10.7-1.7,15.1-3.1l1.1-0.4
		c0.3,0.4,0.6,0.7,1,1c2.5,2.4,5.8,3.6,9.3,3.6c0.2,0,0.4,0,0.5,0c3.6-0.2,7.1-1.7,9.5-4.4s3.8-6.2,3.6-9.9c-0.1-2-1.1-4.5-2.9-7.6
		c-0.6-1-1.3-2-1.9-3c0.7-3.6,0.5-7.1-0.5-10.2c2-0.4,3.8-1.3,5.2-2.6c1.6-1.6,2.5-3.7,2.7-6c0.1,0,0.3,0,0.5,0c2.1,0,5-0.9,6.2-4.7
		C62.9,13.9,62.8,13.4,62.2,13.2z M3.1,26.5C2.8,20,7.9,14.4,14.5,14.1c0.1,0,0.2,0,0.2,0c5.8,0,17.5,8.6,20.7,11
		c-2.1,1.9-7.9,6.9-13.2,10c-2.9,1.7-5.2,2.6-6.8,2.6C8.8,38.2,3.3,33,3.1,26.5z M26.4,46.6L18.8,39c1.3-0.5,2.7-1.2,4.3-2.1
		c0.5-0.3,0.8-0.5,1.3-0.8l4.5,4.5C27.8,42.6,26.9,44.7,26.4,46.6z M29.8,38.9L25.9,35c1.7-1.2,3.3-2.4,4.9-3.6l2.3,2.3
		C31.9,35.3,30.8,37.1,29.8,38.9z M7.1,41.4l16.6,16.6c-2.4,0.6-4.8,1.3-7.2,1.5L5.7,48.6C6,46.2,6.6,43.6,7.1,41.4z M7,57.8
		c-1.4-1.4-1.8-4-1.6-6.9l8.8,8.8C11.2,59.8,8.7,59.4,7,57.8z M27.8,56.7c-0.6,0.2-1.4,0.5-2.1,0.6c0,0,0,0,0-0.1l-18.1-18
		c0.1-0.5,0.3-1,0.4-1.4c2,1.2,4.3,1.9,6.9,1.9c0.2,0,0.4,0,0.5,0c0.5,0,0.9-0.1,1.4-0.2l9.1,9.1c0,0.3,0,0.6,0,0.9
		c0.1,2.5,0.9,4.9,2.3,7L27.8,56.7z M51.6,48.6c0.1,3.2-1,6.2-3.2,8.5c-2.2,2.4-5.1,3.7-8.2,3.8c-3.2,0.1-6.2-1-8.5-3.2
		c-2.4-2.2-3.7-5.1-3.8-8.2c-0.3-5.7,8.6-17.6,11-20.9c1.9,2.1,6.9,7.9,10,13.2C50.6,44.7,51.5,47,51.6,48.6z M39.5,26.6
		c-0.2-0.2-0.5-0.3-0.7-0.3s-0.5,0.1-0.6,0.4c-0.2,0.3-1.9,2.4-4.1,5.5l-1.8-1.8c2.9-2.4,5-4.3,5.2-4.5s0.3-0.5,0.3-0.7
		s-0.1-0.5-0.4-0.6C37,24.3,33,21,28.1,18c5.7-0.9,11,0.5,14.7,4.2c3.4,3.4,5,8.3,4.3,13.7C43.5,31,39.7,26.8,39.5,26.6z M52.1,23.7
		c-1.3,1.3-2.9,2-4.6,2.2c-0.8-1.9-2-3.6-3.4-5.1c-1.4-1.4-3.2-2.6-5.1-3.4c0.2-1.8,1-3.3,2.2-4.6c3-3,7.9-3,10.9,0
		c1.4,1.4,2.3,3.4,2.3,5.4S53.5,22.3,52.1,23.7z"/>
</g>
</svg>
